<?xml version="1.0" encoding="UTF-8"?><svg id="a" xmlns="http://www.w3.org/2000/svg" viewBox="0 0 26 26"><defs><style>.b{fill:#832729;}.c{fill:none;stroke:#efe3e3;stroke-width:1.4px;}</style></defs><path class="b" d="M13,15.75c-3.67,0-11,1.84-11,5.5v2.75H24v-2.75c0-3.66-7.33-5.5-11-5.5Zm0-13.75c-3.04,0-5.5,2.46-5.5,5.5s2.46,5.5,5.5,5.5,5.5-2.46,5.5-5.5-2.46-5.5-5.5-5.5Zm0,16.5c3.71,0,7.97,1.77,8.25,2.75H4.75c.32-.99,4.55-2.75,8.25-2.75m0-13.75c1.51,0,2.75,1.24,2.75,2.75s-1.24,2.75-2.75,2.75-2.75-1.24-2.75-2.75,1.24-2.75,2.75-2.75"/><path class="c" d="M13,15.75c-3.67,0-11,1.84-11,5.5v2.75H24v-2.75c0-3.66-7.33-5.5-11-5.5Zm0-13.75c-3.04,0-5.5,2.46-5.5,5.5s2.46,5.5,5.5,5.5,5.5-2.46,5.5-5.5-2.46-5.5-5.5-5.5Zm0,16.5c3.71,0,7.97,1.77,8.25,2.75H4.75c.32-.99,4.55-2.75,8.25-2.75m0-13.75c1.51,0,2.75,1.24,2.75,2.75s-1.24,2.75-2.75,2.75-2.75-1.24-2.75-2.75,1.24-2.75,2.75-2.75"/></svg>