<?xml version="1.0" encoding="UTF-8"?><svg id="a" xmlns="http://www.w3.org/2000/svg" viewBox="0 0 26 26"><defs><style>.b{fill:#832729;}.c{fill:none;stroke:#efe3e3;}</style></defs><path class="b" d="M20.02,20.02c-1.29,0-2.33,1.05-2.33,2.34s1.04,2.34,2.33,2.34,2.34-1.05,2.34-2.34-1.05-2.34-2.34-2.34Zm-11.7,0c-1.29,0-2.33,1.05-2.33,2.34s1.04,2.34,2.33,2.34,2.34-1.05,2.34-2.34-1.05-2.34-2.34-2.34Zm-.98-14.04h14.22l-3.23,5.85H10.1l-2.77-5.85Zm10.99,8.19c.88,0,1.65-.48,2.05-1.21l4.19-7.59c.43-.77-.13-1.73-1.02-1.73H6.22l-1.1-2.34H1.29V3.64H3.63L7.85,12.52l-1.58,2.86c-.85,1.57,.27,3.47,2.05,3.47h14.04v-2.34H8.31l1.29-2.34h8.72Z"/><path class="c" d="M20.02,20.02c-1.29,0-2.33,1.05-2.33,2.34s1.04,2.34,2.33,2.34,2.34-1.05,2.34-2.34-1.05-2.34-2.34-2.34Zm-11.7,0c-1.29,0-2.33,1.05-2.33,2.34s1.04,2.34,2.33,2.34,2.34-1.05,2.34-2.34-1.05-2.34-2.34-2.34Zm-.98-14.04h14.22l-3.23,5.85H10.1l-2.77-5.85Zm10.99,8.19c.88,0,1.65-.48,2.05-1.21l4.19-7.59c.43-.77-.13-1.73-1.02-1.73H6.22l-1.1-2.34H1.29V3.64H3.63L7.85,12.52l-1.58,2.86c-.85,1.57,.27,3.47,2.05,3.47h14.04v-2.34H8.31l1.29-2.34h8.72Z"/></svg>